<?xml version="1.0" encoding="UTF-8" standalone="no"?>
<!-- Created with Inkscape (http://www.inkscape.org/) -->

<svg
   width="202.03198mm"
   height="106.92648mm"
   viewBox="0 0 202.03198 106.92648"
   version="1.1"
   id="svg1"
   xml:space="preserve"
   xmlns="http://www.w3.org/2000/svg"
   xmlns:svg="http://www.w3.org/2000/svg"><defs
     id="defs1" /><g
     id="layer1"
     transform="translate(-333.89121,-46.933332)"><path
       style="fill:#ffffff;stroke-width:0.886067"
       d="m 429.61586,153.51625 c -21.44952,-2.22679 -39.90649,-19.97027 -44.12401,-42.03301 -0.89865,-4.70108 1.42354,-4.07804 2.52474,0.65321 7.10134,30.51039 41.92402,47.62127 63.87654,31.38713 14.89801,-11.01725 9.80632,-37.03333 -8.30121,-42.41508 -0.91202,-0.27106 -1.71162,-0.55012 -1.77689,-0.62012 -0.0653,-0.07 21.10386,-0.12729 47.04252,-0.12729 25.93866,0 47.11815,0.0462 47.06554,0.1026 -0.0526,0.0564 -1.77589,0.2264 -3.82949,0.37772 -25.9052,1.90875 -38.11427,8.20097 -55.78382,28.74944 -17.31312,20.13397 -28.41595,25.82293 -46.69392,23.9254 z m -95.71115,-53.32457 c 27.77941,-2.009813 40.23928,-8.390071 59.17256,-30.300192 12.48274,-14.445354 19.81434,-19.627949 31.03739,-21.939838 26.61878,-5.483333 51.7845,11.661115 58.40566,39.78955 0.87104,3.700421 0.87134,4.038065 0.004,4.242413 -1.19556,0.281631 -1.53708,-0.0064 -1.81414,-1.527908 -5.06992,-27.84925 -33.46417,-46.060609 -57.61406,-36.952216 -21.73042,8.195864 -20.05089,39.404898 2.49012,46.271319 1.81098,0.551662 1.81098,0.551662 -45.50113,0.525212 -26.02166,-0.0146 -46.80277,-0.0633 -46.18025,-0.10834 z"
       id="path1" /></g></svg>
